<svg id="icon_attached_s" xmlns="http://www.w3.org/2000/svg" width="28" height="28" viewBox="0 0 28 28">
  <rect id="사각형_23" data-name="사각형 23" width="28" height="28" fill="none"/>
  <g id="Vector_Smart_Object" data-name="Vector Smart Object" transform="translate(-278.573 -64.297)">
    <g id="그룹_26" data-name="그룹 26">
      <path id="패스_31" data-name="패스 31" d="M296.782,75.027,290.84,80.67a1.681,1.681,0,0,1-2.286,0,1.483,1.483,0,0,1,0-2.171l5.257-4.992h0l2.394-2.273a3.5,3.5,0,0,1,4.766,0,3.087,3.087,0,0,1,0,4.525l-9.375,8.7a4.883,4.883,0,0,1-6.646,0,4.305,4.305,0,0,1,0-6.312l7.665-7.076" fill="none" stroke="#000" stroke-linecap="round" stroke-linejoin="round" stroke-width="1.574"/>
    </g>
  </g>
</svg>
