<svg id="icon_quiz_s" xmlns="http://www.w3.org/2000/svg" width="28" height="28" viewBox="0 0 28 28">
  <g id="Vector_Smart_Object10" data-name="Vector Smart Object10" transform="translate(-250.523 -89.787)">
    <g id="그룹_41" data-name="그룹 41">
      <path id="패스_51" data-name="패스 51" d="M270.874,95.652a11.39,11.39,0,0,1,2.409,7.581,14.038,14.038,0,0,1-.6,4.248,10.754,10.754,0,0,1-1.76,3.374l1.593,1.378a1.139,1.139,0,0,1,.161,1.528h0a1.032,1.032,0,0,1-1.516.174l-1.862-1.612a9.446,9.446,0,0,1-2.3,1.115,8.36,8.36,0,0,1-2.627.41,7.939,7.939,0,0,1-6.47-2.894,11.769,11.769,0,0,1-2.382-7.721,11.474,11.474,0,0,1,2.382-7.581,8.77,8.77,0,0,1,12.968,0Zm-.69,10.714a12.44,12.44,0,0,0,.365-3.163A9.586,9.586,0,0,0,268.9,97.36a5.349,5.349,0,0,0-4.549-2.231,5.242,5.242,0,0,0-4.508,2.231,9.756,9.756,0,0,0-1.611,5.843,10.389,10.389,0,0,0,1.584,5.986,5.165,5.165,0,0,0,4.535,2.315,5.615,5.615,0,0,0,1.584-.225,5.9,5.9,0,0,0,1.584-.763l-1.621-1.424a1.126,1.126,0,0,1-.136-1.527h0a1.019,1.019,0,0,1,1.488-.144l1.785,1.57A9.377,9.377,0,0,0,270.184,106.366Z"/>
      <rect id="사각형_21" data-name="사각형 21" width="11.111" height="2.749" rx="1.346" transform="translate(265.529 105.816) rotate(39.832)" fill="#fede00"/>
    </g>
  </g>
  <rect id="사각형_22" data-name="사각형 22" width="28" height="28" fill="none"/>
</svg>
