<svg id="icon_calendar_m" xmlns="http://www.w3.org/2000/svg" width="40" height="40" viewBox="0 0 40 40">
  <g id="그룹_38" data-name="그룹 38" transform="translate(-371.207 -78.884)">
    <path id="패스_46" data-name="패스 46" d="M400.847,114.887H381.567a6.317,6.317,0,0,1-6.36-6.258V91.336a6.317,6.317,0,0,1,6.36-6.258h19.281a6.317,6.317,0,0,1,6.36,6.258v17.293A6.317,6.317,0,0,1,400.847,114.887ZM381.567,87.5a3.871,3.871,0,0,0-3.9,3.836v17.293a3.872,3.872,0,0,0,3.9,3.836h19.281a3.872,3.872,0,0,0,3.9-3.836V91.336a3.871,3.871,0,0,0-3.9-3.836Z"/>
    <g id="그룹_36" data-name="그룹 36" transform="translate(375.474 85.078)">
      <path id="사각형_16" data-name="사각형 16" d="M6.207,0h16.8a6.207,6.207,0,0,1,6.207,6.207V9.795a0,0,0,0,1,0,0H0a0,0,0,0,1,0,0V6.207A6.207,6.207,0,0,1,6.207,0Z" transform="translate(1.248 1.241)" fill="#fede00" stroke="#000" stroke-linecap="round" stroke-linejoin="round" stroke-width="3.057"/>
      <path id="패스_47" data-name="패스 47" d="M405.965,97.355H376.694a1.23,1.23,0,0,1-1.22-1.241V91.491a6.366,6.366,0,0,1,6.3-6.414h19.107a6.366,6.366,0,0,1,6.3,6.414v4.622A1.231,1.231,0,0,1,405.965,97.355Zm-28.053-2.482h26.833V91.491a3.9,3.9,0,0,0-3.862-3.931H381.776a3.9,3.9,0,0,0-3.863,3.931Z" transform="translate(-375.474 -85.078)"/>
    </g>
    <g id="그룹_37" data-name="그룹 37" transform="translate(384.247 82.884)">
      <path id="패스_48" data-name="패스 48" d="M385.877,90.822a1.338,1.338,0,0,1-1.259-1.4V84.288a1.266,1.266,0,1,1,2.518,0v5.131A1.337,1.337,0,0,1,385.877,90.822Z" transform="translate(-384.617 -82.884)" stroke="#000" stroke-width="0.51"/>
      <path id="패스_49" data-name="패스 49" d="M397.279,90.822a1.338,1.338,0,0,1-1.259-1.4V84.288a1.267,1.267,0,1,1,2.519,0v5.131A1.338,1.338,0,0,1,397.279,90.822Z" transform="translate(-384.617 -82.884)" stroke="#000" stroke-width="0.51"/>
    </g>
  </g>
  <rect id="사각형_17" data-name="사각형 17" width="40" height="40" fill="none"/>
</svg>
